<?xml version="1.0" encoding="UTF-8"?>
<svg width="80px" height="80px" viewBox="0 0 80 80" version="1.1" xmlns="http://www.w3.org/2000/svg" xmlns:xlink="http://www.w3.org/1999/xlink">
    <title>C8025402-DE51-4F14-972F-845AE29C45A7</title>
    <g id="ER" stroke="none" stroke-width="1" fill="none" fill-rule="evenodd">
        <g id="Quality-Analytics-landing-page" transform="translate(-1071.000000, -104.000000)">
            <g id="Group-3" transform="translate(966.000000, 72.000000)">
                <g id="icon-capa" transform="translate(105.000000, 32.000000)">
                    <rect id="Rectangle" x="0" y="0" width="80" height="80"></rect>
                    <g id="icon-ER" transform="translate(40.000000, 40.000000) rotate(-45.000000) translate(-40.000000, -40.000000) translate(15.000000, 15.000000)" stroke="#FFFFFF" stroke-linecap="round" stroke-linejoin="round">
                        <path d="M10,5 L20,5 M30,5 L40,5 M45,10 L45,20 M45,30 L45,40 M40,45 L30,45 M20,45 L10,45 M5,40 L5,30 M10,25 L20,25" id="Shape" stroke-width="2"></path>
                        <path d="M45,40 C47.7614237,40 50,42.2385763 50,45 C50,47.7614237 47.7614237,50 45,50 C42.2385763,50 40,47.7614237 40,45 C40,42.2385763 42.2385763,40 45,40 Z M25,40 C27.7614237,40 30,42.2385763 30,45 C30,47.7614237 27.7614237,50 25,50 C22.2385763,50 20,47.7614237 20,45 C20,42.2385763 22.2385763,40 25,40 Z M5,40 C7.76142375,40 10,42.2385763 10,45 C10,47.7614237 7.76142375,50 5,50 C2.23857625,50 0,47.7614237 0,45 C0,42.2385763 2.23857625,40 5,40 Z M45,20 C47.7614237,20 50,22.2385763 50,25 C50,27.7614237 47.7614237,30 45,30 C42.2385763,30 40,27.7614237 40,25 C40,22.2385763 42.2385763,20 45,20 Z M5,20 C7.76142375,20 10,22.2385763 10,25 C10,27.7614237 7.76142375,30 5,30 C2.23857625,30 0,27.7614237 0,25 C0,22.2385763 2.23857625,20 5,20 Z M25,20 C27.7614237,20 30,22.2385763 30,25 C30,27.7614237 27.7614237,30 25,30 C22.2385763,30 20,27.7614237 20,25 C20,22.2385763 22.2385763,20 25,20 Z M5,0 C7.76142375,0 10,2.23857625 10,5 C10,7.76142375 7.76142375,10 5,10 C2.23857625,10 0,7.76142375 0,5 C0,2.23857625 2.23857625,0 5,0 Z M25,0 C27.7614237,0 30,2.23857625 30,5 C30,7.76142375 27.7614237,10 25,10 C22.2385763,10 20,7.76142375 20,5 C20,2.23857625 22.2385763,0 25,0 Z M45,0 C47.7614237,0 50,2.23857625 50,5 C50,7.76142375 47.7614237,10 45,10 C42.2385763,10 40,7.76142375 40,5 C40,2.23857625 42.2385763,0 45,0 Z" id="Combined-Shape" stroke-width="3"></path>
                    </g>
                </g>
            </g>
        </g>
    </g>
</svg>