<?xml version="1.0" encoding="UTF-8"?>
<svg width="80px" height="80px" viewBox="0 0 80 80" version="1.1" xmlns="http://www.w3.org/2000/svg" xmlns:xlink="http://www.w3.org/1999/xlink">
    <title>AD653790-C69B-4763-BA54-9F46B3BE5D4C</title>
    <g id="ER" stroke="none" stroke-width="1" fill="none" fill-rule="evenodd">
        <g id="Quality-Analytics-landing-page" transform="translate(-129.000000, -104.000000)">
            <g id="Group-4" transform="translate(24.000000, 72.000000)">
                <g id="Group-8" transform="translate(105.000000, 32.000000)">
                    <rect id="Rectangle" x="0" y="0" width="80" height="80"></rect>
                    <path d="M71.5,2 C72.6646346,2 73.3687723,3.25951562 72.8040702,4.24186229 L72.7360629,4.34979323 L67.675,11.711 L73.1701282,18.5614906 C73.5707663,19.0610039 73.6072338,19.7544065 73.2753296,20.2897408 L73.1921953,20.4103133 L68.007,27.2 L72.7096075,33.6129545 C73.3623013,34.5029915 72.8603991,35.752054 71.8076528,35.9683999 L71.6787178,35.9893153 L48,38.83 L48,45.5 C48,46.1940843 47.5252441,46.7908454 46.8629582,46.9554895 L46.7280858,46.9825575 L9,52.786 L9,76.5 C9,77.3284271 8.32842712,78 7.5,78 C6.72030388,78 6.07955132,77.4051119 6.00686658,76.64446 L6,76.5 L6,7.5 C6,6.67157288 6.67157288,6 7.5,6 C8.27969612,6 8.92044868,6.59488808 8.99313342,7.35553999 L9,7.5 L9,10.999 L30,10.999 L30,3.5 L30.0000945,3.46754938 C30.0007551,3.43564311 30.0024364,3.40370322 30.0051508,3.3717794 L30,3.5 C30,3.43260605 30.0044445,3.36625018 30.0130565,3.30120951 C30.0161333,3.27646802 30.020119,3.25138296 30.0247579,3.22635482 C30.0279937,3.2095562 30.0314539,3.19245318 30.0352024,3.17545834 C30.0403029,3.15207079 30.0459884,3.12905103 30.0522419,3.10611354 C30.0613334,3.0726098 30.0716856,3.03917975 30.0831519,3.00627174 C30.0864837,2.99706819 30.0898349,2.9877777 30.0932836,2.97850719 C30.1053895,2.94546437 30.118757,2.9130087 30.1332058,2.88114773 C30.1391092,2.86870116 30.1450653,2.85605496 30.1512137,2.84346026 C30.1631291,2.81845157 30.1759827,2.7938602 30.189486,2.76968109 C30.1974261,2.75597454 30.2054691,2.74207552 30.2137606,2.72825637 L30.2228509,2.71290574 C30.2355327,2.69237186 30.2486958,2.67216678 30.2623246,2.65230624 L30.2137606,2.72825637 C30.3570286,2.4894764 30.5562438,2.30493247 30.7845863,2.18132958 C30.8974408,2.11995227 31.0187009,2.07278212 31.146331,2.04193393 C31.1680571,2.03701501 31.1900711,2.0321894 31.2121869,2.02785832 C31.2185144,2.02635789 31.2241099,2.02530655 31.2297163,2.02428637 C31.2675215,2.01757552 31.3062565,2.01199175 31.345191,2.00792204 C31.3487999,2.00752211 31.3521683,2.00718876 31.35554,2.00686658 L31.4043341,2.00291671 C31.4267703,2.00146303 31.4492567,2.00051144 31.4717756,2.00006632 L71.5,2 Z M45,14 L9,14 L9,49.751 L45,44.213 L45,14 Z M68.647,5 L36.914,4.999 L47.2717436,11.2137606 L47.2870943,11.2228509 C47.3014206,11.2316989 47.3155869,11.2407812 47.3295879,11.2500925 L47.2717436,11.2137606 C47.5006915,11.3511293 47.6797778,11.5399327 47.8030923,11.7565293 C47.8719752,11.8770325 47.9246162,12.007937 47.9580661,12.146331 C47.9735556,12.2115957 47.9850648,12.2780973 47.992078,12.345191 C47.9973349,12.3962482 48,12.4478129 48,12.5 L47.9988653,12.4375205 C47.99928,12.4472513 47.9996002,12.4569898 47.9998256,12.4667346 L48,12.5 L48,35.808 L68.771,33.316 L64.9242811,28.0696209 C64.5610108,27.5742523 64.5391075,26.912614 64.8555386,26.3977414 L64.9416933,26.2722621 L70.094,19.522 L64.6376583,12.7180926 C64.255425,12.2415262 64.2031941,11.5857092 64.4923232,11.0586846 L64.5717237,10.9297899 L68.647,5 Z M41.083,10.999 L33,6.149 L33,10.999 L41.083,10.999 Z" id="Combined-Shape" fill="#596C7C"></path>
                </g>
            </g>
        </g>
    </g>
</svg>